# xmcd
#
# Track frame offsets:
# 150
# 15832
# 40475
# 62455
# 82702
# 106697
# 122745
# 147240
# 161505
# 184609
# 199637
# 221935
# 237450
# 258265
# 273882
#
# Disc length: 3852 seconds
#
#
# Revision: 0
# Processed by: cddbd v1.5.2PL0 Copyright (c) Steve Scherf et al.
# Submitted via: FreeRIP 2.951 
#
DISCID=c10f0a0f
DTITLE=B.B. King - Blues On The Bayou
DYEAR=1998
DGENRE=Blues
TTITLE0=Blues Boys
TTITLE1=Bad Case Of Love
TTITLE2=I'll Survive
TTITLE3=Mean Ole' World
TTITLE4=Blues Man
TTITLE5=Broken Promise
TTITLE6=Darlin' What Happened
TTITLE7=Shake It Up And Go
TTITLE8=Blues We Like
TTITLE9=Good Man Gone Bad
TTITLE10=If I Lost You
TTITLE11=Tell Me Baby
TTITLE12=I Got Some Outside Help I Don't Need
TTITLE13=Blues In G
TTITLE14=If That Ain't It I Quit
EXTD=Blues On The Bayou\n\nB.B. King\nFormat: Album\nReleased: 10/20/1998\nLabel: Geffen\nEdition(s): Album Length Compact Disc \n
EXTT0=
EXTT1=
EXTT2=
EXTT3=
EXTT4=
EXTT5=
EXTT6=
EXTT7=
EXTT8=
EXTT9=
EXTT10=
EXTT11=
EXTT12=
EXTT13=
EXTT14=
PLAYORDER=
